<svg xmlns="http://www.w3.org/2000/svg" width="38.184" height="38.184" viewBox="0 0 38.184 38.184">
  <defs>
    <style>
      .cls-1 {
        fill: #333;
      }
    </style>
  </defs>
  <g id="그룹_312" data-name="그룹 312" transform="translate(-236.852 -1036.027) rotate(45)">
    <path id="패스_1881" data-name="패스 1881" class="cls-1" d="M931.69,590.553a2,2,0,0,1-2-2v-46a2,2,0,0,1,4,0v46A2,2,0,0,1,931.69,590.553Z" transform="translate(-4.629 -0.451)"/>
    <path id="패스_1882" data-name="패스 1882" class="cls-1" d="M0,48a2,2,0,0,1-2-2V0A2,2,0,0,1,0-2,2,2,0,0,1,2,0V46A2,2,0,0,1,0,48Z" transform="translate(950.061 565.102) rotate(90)"/>
  </g>
</svg>
